<svg fill="none" height="257" viewBox="0 0 720 257" width="720" xmlns="http://www.w3.org/2000/svg" xmlns:xlink="http://www.w3.org/1999/xlink"><linearGradient id="a" gradientUnits="userSpaceOnUse" x1="720" x2="187.622" y1="-320" y2="-415.741"><stop offset="0" stop-color="#01e8f7"/><stop offset="1" stop-color="#00c2ff"/></linearGradient><linearGradient id="b" gradientUnits="userSpaceOnUse" x1="158.877" x2="158.877" y1="71.668" y2="206.579"><stop offset="0" stop-color="#fff" stop-opacity=".16"/><stop offset="1" stop-color="#fff" stop-opacity="0"/></linearGradient><linearGradient id="c" gradientUnits="userSpaceOnUse" x1="203.118" x2="205.732" y1="110.924" y2="144.669"><stop offset="0" stop-color="#fff"/><stop offset="1" stop-color="#fff"/></linearGradient><linearGradient id="d" gradientUnits="userSpaceOnUse" x1="144.303" x2="179.786" y1="87.3856" y2="143.7"><stop offset="0" stop-color="#c2f5ff"/><stop offset="1" stop-color="#8eedff"/></linearGradient><linearGradient id="e" gradientUnits="userSpaceOnUse" x1="136.627" x2="190.781" y1="97.1997" y2="176.396"><stop offset="0" stop-color="#c2f5ff"/><stop offset="1" stop-color="#f5fdff"/></linearGradient><clipPath id="f"><path d="m0 0h720v257h-720z"/></clipPath><g clip-path="url(#f)"><path d="m0 0h720v257h-720z" fill="#fff"/><path d="m0-320h720v900h-720z" fill="url(#a)"/><circle cx="158.877" cy="130.38" fill="url(#b)" r="68.8768"/><path d="m212.703 121.057c.478-9.924-6.453-16.507-14.275-21.027l-5.085 29.87c3.52-.196 5.241 1.14 5.867 1.769.782.786 2.738 3.144.391 6.878 4.889-.786 12.525-5.502 13.102-17.49z" fill="url(#c)"/><g clip-rule="evenodd" fill-rule="evenodd"><path d="m146.007 86.281-6.062-6.092c9.126-1.1136 33.205.3144 56.515 14.9351.392 1.5721 0 3.9303 0 3.9303l1.956.9826c1.695 2.424 4.576 9.315 2.542 17.49s-5.541 11.66-7.04 12.38c-3.129 0-8.448 1.808-10.169 9.826s-5.019 9.76-6.453 9.629l-34.418.393-22.684-13.363-3.324-27.708 6.453-8.647 11.538-9.4327 8.213-3.3408zm40.649 11.4459c-1.517 1.5808-2.937 2.3391-3.342 2.5451-8.862-1.8853-12.055-6.4701-12.055-6.4701 8.36-.0516 15.904 1.9367 21.424 5.3001 0 0-2.988-.9683-6.027-1.3751z" fill="url(#d)"/><path d="m183.446 139.735c-6.075 2.982-13.277 4.708-21 4.708-21.709 0-39.307-13.638-39.307-30.46 0-12.426 9.602-23.1148 23.371-27.8525-26.186 1.5091-47.2288 22.5455-47.2288 48.5025 0 29.957 26.7038 54.71 59.6438 54.71 24.598 0 45.073-14.261 55.779-33.342-14.731 3.313-32.169-2.986-31.258-16.266z" fill="url(#e)"/><path d="m360.018 105.788c-3.359-3.339-8.51-5.311-15.079-5.311h-23.29v53.111h9.182l-.002-16.357-.007.004v-11.844l.007.001.002-16.418h13.362c6.787 0 10.73 2.964 10.822 8.599l.002.354-.007.37c-.184 5.247-4.323 8.508-10.743 8.508l-3.951-.002-4.729 8.27 6.74.002 12.839 18.513h10.899l-14.109-20.107.469-.143c6.916-2.186 11.813-7.291 11.921-15.658l.002-.435c0-4.629-1.568-8.498-4.33-11.457zm119.63 1.78c-5.364-4.553-11.026-7.091-20.041-7.091-15.623 0-26.654 12.123-26.892 26.545l-.004.625c0 15.227 10.728 26.872 27.045 26.872 9.238 0 16.54-3.733 21.755-8.136v-21.945l-8.866 8.061v9.704c-3.204 2.388-7.599 3.956-12.591 3.956-10.498 0-17.523-7.682-17.728-18.189l-.004-.621c0-10.002 7.376-18.362 16.912-18.362 6.557 0 10.58 2.09 14.603 5.523zm66.157 19.781c0-14.705-11.176-26.872-27.194-26.872-15.846 0-27.099 12.126-27.339 26.55l-.004.62c0 14.705 11.175 26.872 27.194 26.872 15.846 0 27.099-12.126 27.339-26.55zm-235.21 26.274-22.947-52.623h-8.494l-22.947 52.623 9.162-.001 17.883-41.65 18.015 41.65zm118.194 0-22.947-52.623h-8.494l-22.947 52.623 9.162-.001 17.883-41.65 18.014 41.65zm163.337-16.123-27.939-36.127h-8.494v52.25h9.015v-37.172l28.759 37.172h7.674v-52.25h-9.015zm-91.247-10.151c0-10.152 7.227-18.362 17.583-18.362 10.277 0 17.516 8.116 17.727 18.064l.005.596c0 10.152-7.227 18.362-17.583 18.362-10.277 0-17.517-8.116-17.727-18.064z" fill="#fff"/></g></g></svg>